#!OML:ASF H:\Terrain\Walking\May29\JustinRory\Justin.ASF
:FULLY-SPECIFIED
:DEGREES
228
root 11.1993 16.0284 11.7463 165.071 -31.6104 -162.846
lowerback 24.2104 -1.27719 -1.43717
upperback 5.67264 -2.67863 2.49056
thorax -7.01632 -1.63431 4.38914
lowerneck -13.5983 -6.3931 -13.539
upperneck 20.4368 -7.94619 7.56908
head 9.553 -4.12055 3.83092
rclavicle -3.57812e-015 -6.36111e-014
rhumerus 43.3713 -30.0255 -98.4336
rradius 23.3368
rwrist -40.2275
rhand -4.77136 188.763
rfingers 7.12502
rthumb 21.0131 -142.355
lclavicle -3.57812e-015 -6.36111e-014
lhumerus 24.5097 -43.4084 83.8359
lradius 55.7305
lwrist -2.89418
lhand -12.0852 41.6252
lfingers 7.12502
lthumb 13.9749 71.1355
rfemur -22.6409 7.77515 13.5371
rtibia 19.5397
rfoot 10.7307 -6.79669
rtoes -9.89698
lfemur -37.0534 7.42872 -11.9599
ltibia 70.0231
lfoot -16.7677 -3.71724
ltoes 5.49736
229
root 11.16 15.987 11.873 165.26 -30.7919 -163.023
lowerback 24.3864 -1.497 -1.58495
upperback 5.57387 -3.00004 2.46959
thorax -7.18282 -1.7799 4.55966
lowerneck -14.4665 -5.9343 -13.397
upperneck 20.8419 -7.14432 7.20209
head 9.74287 -3.76468 3.77764
rclavicle 6.91771e-014 -7.95139e-015
rhumerus 43.9504 -28.9964 -99.5131
rradius 22.8433
rwrist -39.7181
rhand -9.56624 184.174
rfingers 7.12502
rthumb 16.4013 -146.499
lclavicle 6.91771e-014 -7.95139e-015
lhumerus 26.8109 -42.8381 83.564
lradius 54.3369
lwrist -2.72874
lhand -12.8771 42.2601
lfingers 7.12502
lthumb 13.2117 71.8214
rfemur -22.8076 6.33665 14.3584
rtibia 18.8848
rfoot 11.956 -7.93768
rtoes -10.9587
lfemur -37.1187 7.24288 -12.0898
ltibia 69.769
lfoot -16.7695 -3.73211
ltoes 5.37615
230
root 11.129 15.9854 12.0049 165.706 -29.9074 -163.247
lowerback 24.0436 -1.57875 -1.88177
upperback 5.5347 -3.16785 2.44854
thorax -7.02275 -1.85556 4.73496
lowerneck -15.0958 -5.52048 -13.4244
upperneck 21.0263 -6.46934 7.21679
head 9.84843 -3.44316 3.87605
rclavicle 1.94809e-014 2.38542e-014
rhumerus 45.1701 -28.8336 -101.626
rradius 22.2885
rwrist -38.6284
rhand -12.1348 182.188
rfingers 7.12502
rthumb 13.9271 -148.298
lclavicle 1.94809e-014 2.38542e-014
lhumerus 28.8315 -42.3269 83.558
lradius 52.9885
lwrist -2.73066
lhand -13.1782 42.5819
lfingers 7.12502
lthumb 12.9214 72.1618
rfemur -23.1417 4.92069 15.175
rtibia 18.9549
rfoot 12.4918 -8.85414
rtoes -10.0434
lfemur -37.4209 7.11021 -12.2305
ltibia 69.3947
lfoot -16.7824 -3.74633
ltoes 5.25059
231
root 11.1017 15.9952 12.1417 166.158 -28.9923 -163.418
lowerback 23.6924 -1.65008 -2.13547
upperback 5.52891 -3.31464 2.43585
thorax -6.82329 -1.92629 4.88499
lowerneck -15.7561 -5.17177 -13.2869
upperneck 21.0089 -5.85885 7.07957
head 9.88575 -3.14472 3.88315
rclavicle 1.90833e-014 3.65764e-014
rhumerus 46.7495 -29.0485 -104.341
rradius 21.675
rwrist -37.2001
rhand -13.9938 180.801
rfingers 7.12502
rthumb 12.1351 -149.571
lclavicle 1.90833e-014 3.65764e-014
lhumerus 30.7335 -41.6573 83.7217
lradius 51.5888
lwrist -2.90489
lhand -12.4649 42.6746
lfingers 7.12502
lthumb 13.6089 72.2098
rfemur -23.5718 3.7877 15.9187
rtibia 19.5683
rfoot 12.412 -9.44331
rtoes -6.92237
lfemur -37.7799 7.11317 -12.3785
ltibia 68.9596
lfoot -16.6677 -3.41633
ltoes 3.70999
232
root 11.0719 16.0059 12.2805 166.49 -28.0487 -163.474
lowerback 23.6219 -1.78553 -2.16279
upperback 5.5027 -3.50069 2.40196
thorax -6.79927 -2.01637 4.91194
lowerneck -16.813 -4.83396 -12.8825
upperneck 21.1539 -5.19598 6.5823
head 10.0339 -2.83527 3.72332
rclavicle 6.44062e-014 -4.29375e-014
rhumerus 47.5764 -28.6597 -106.05
rradius 21.2892
rwrist -36.2424
rhand -15.4991 179.096
rfingers 7.12502
rthumb 10.6834 -151.196
lclavicle 6.44062e-014 -4.29375e-014
lhumerus 32.8282 -40.9054 83.5832
lradius 50.0266
lwrist -2.71938
lhand -11.8735 42.7448
lfingers 7.12502
lthumb 14.1789 72.2409
rfemur -24.2905 3.05858 16.6144
rtibia 20.9136
rfoot 11.7505 -9.49408
rtoes -5.30374
lfemur -37.8378 7.12536 -12.4646
ltibia 68.2957
lfoot -16.1874 -2.84706
ltoes 3.04747
233
root 11.0426 16.0268 12.4194 166.818 -27.0662 -163.511
lowerback 23.8522 -1.95896 -2.0368
upperback 5.19335 -3.67126 2.26319
thorax -7.25946 -2.06578 4.76647
lowerneck -17.4272 -4.37012 -12.5544
upperneck 21.2505 -4.45983 6.2562
head 10.0857 -2.49587 3.65454
rclavicle 2.46493e-014 -3.18055e-015
rhumerus 46.9446 -27.7703 -106.321
rradius 21.3062
rwrist -36.2759
rhand -15.7138 178.371
rfingers 7.12502
rthumb 10.4762 -151.91
lclavicle 2.46493e-014 -3.18055e-015
lhumerus 34.2773 -40.337 83.5846
lradius 48.3458
lwrist -2.153
lhand -12.1179 42.8946
lfingers 7.12502
lthumb 13.9434 72.4071
rfemur -25.1372 2.60269 17.2907
rtibia 22.4695
rfoot 11.2086 -8.97103
rtoes -5.59438
lfemur -37.9176 7.18783 -12.5525
ltibia 67.6017
lfoot -15.6413 -2.19432
ltoes 5.06052
234
root 11.0218 16.0441 12.5534 167.206 -26.1348 -163.939
lowerback 23.8241 -1.97369 -2.34762
upperback 5.20022 -3.78437 2.04357
thorax -7.22419 -2.11662 4.73246
lowerneck -18.1813 -4.02157 -12.5997
upperneck 21.1739 -3.87338 6.48922
head 10.1412 -2.17963 3.82753
rclavicle -3.02153e-014 1.59028e-014
rhumerus 46.3928 -26.5463 -106.176
rradius 21.7647
rwrist -38.0466
rhand -16.4292 179.288
rfingers 7.12502
rthumb 9.78608 -150.959
lclavicle -3.02153e-014 1.59028e-014
lhumerus 36.2389 -39.9529 83.0522
lradius 46.6584
lwrist -1.46294
lhand -12.2187 43.5761
lfingers 7.12502
lthumb 13.8462 73.0953
rfemur -25.9052 2.49916 17.4923
rtibia 24.0435
rfoot 10.8095 -8.57636
rtoes -5.74454
lfemur -38.0178 7.44321 -13.0439
ltibia 66.9509
lfoot -15.1718 -1.52772
ltoes 7.62915
235
root 11.0116 16.059 12.6838 167.71 -25.3028 -164.809
lowerback 23.7311 -1.80606 -3.11762
upperback 5.337 -3.79296 1.72338
thorax -7.0004 -2.12535 4.81025
lowerneck -19.2442 -3.85827 -12.7095
upperneck 21.4061 -3.52911 6.8287
head 10.3936 -1.97139 4.0228
rclavicle 2.0276e-014 1.43125e-014
rhumerus 45.9115 -25.2273 -105.663
rradius 22.4421
rwrist -39.7728
rhand -16.6043 180.324
rfingers 7.12502
rthumb 9.61711 -149.916
lclavicle 2.0276e-014 1.43125e-014
lhumerus 38.2518 -39.8743 82.4013
lradius 45.1022
lwrist -0.965393
lhand -11.8391 44.097
lfingers 7.12502
lthumb 14.212 73.5908
rfemur -26.5653 2.4959 17.2023
rtibia 25.6248
rfoot 10.2555 -8.25419
rtoes -5.39298
lfemur -38.0503 7.84778 -13.9981
ltibia 66.2568
lfoot -14.6724 -0.920909
ltoes 9.26538
236
root 11.0025 16.0765 12.8156 168.045 -24.4571 -165.47
lowerback 23.6808 -1.60229 -3.87617
upperback 5.48194 -3.74309 1.62021
thorax -6.78008 -2.11239 5.10727
lowerneck -19.94 -3.63394 -12.7293
upperneck 21.2992 -3.03116 6.65561
head 10.428 -1.74181 4.03515
rclavicle 3.10104e-014 -3.81667e-014
rhumerus 46.3881 -24.7026 -106.222
rradius 22.2025
rwrist -39.8442
rhand -17.2045 180.809
rfingers 7.12502
rthumb 9.03805 -149.405
lclavicle 3.10104e-014 -3.81667e-014
lhumerus 39.924 -39.5963 82.3987
lradius 43.4304
lwrist -0.789831
lhand -11.32 43.9592
lfingers 7.12502
lthumb 14.7122 73.4172
rfemur -27.0951 2.48887 17.1214
rtibia 27.2698
rfoot 9.45023 -7.50978
rtoes -4.5928
lfemur -37.9871 8.17187 -14.6992
ltibia 65.5124
lfoot -14.1032 -0.266083
ltoes 9.9322
237
root 10.9889 16.1017 12.9486 168.294 -23.6352 -166.106
lowerback 24.5493 -1.66295 -4.07976
upperback 4.98555 -3.90529 1.07203
thorax -7.78495 -2.1165 4.74977
lowerneck -19.7865 -3.05117 -12.1267
upperneck 21.1554 -2.34692 6.36035
head 10.2573 -1.41472 3.92522
rclavicle -5.60573e-014 -3.97569e-014
rhumerus 46.0658 -24.8397 -107.284
rradius 21.5041
rwrist -39.6947
rhand -18.2236 181.018
rfingers 7.12502
rthumb 8.05455 -149.155
lclavicle -5.60573e-014 -3.97569e-014
lhumerus 40.3118 -39.5701 82.5909
lradius 41.6758
lwrist -0.706962
lhand -10.304 44.2325
lfingers 7.12502
lthumb 15.6908 73.6163
rfemur -27.5934 2.45307 17.0296
rtibia 29.0908
rfoot 8.6381 -6.22163
rtoes -3.20541
lfemur -37.7373 8.25953 -15.3268
ltibia 64.6366
lfoot -13.5929 0.525545
ltoes 9.66319
238
root 10.9748 16.1363 13.0793 168.528 -22.8647 -166.785
lowerback 25.1549 -1.68682 -4.33302
upperback 4.69636 -4.06209 0.519826
thorax -8.42914 -2.14753 4.38566
lowerneck -19.9473 -2.55676 -11.6548
upperneck 21.1424 -1.74888 6.24664
head 10.2109 -1.11278 3.89284
rclavicle 2.54444e-014 -1.59028e-015
rhumerus 45.5285 -24.4808 -107.616
rradius 21.1979
rwrist -40.2233
rhand -19.0991 181.361
rfingers 7.12502
rthumb 7.2095 -148.782
lclavicle 2.54444e-014 -1.59028e-015
lhumerus 41.0418 -39.704 82.2946
lradius 40.0847
lwrist -0.800154
lhand -9.08694 44.8087
lfingers 7.12502
lthumb 16.8627 74.0966
rfemur -28.0995 2.05525 16.9695
rtibia 31.0897
rfoot 7.9225 -4.2756
rtoes -4.33736
lfemur -37.403 8.22753 -15.9817
ltibia 63.6562
lfoot -13.1403 1.17167
ltoes 8.69072
239
root 10.9642 16.1704 13.2101 168.562 -22.0465 -167.147
lowerback 24.7476 -1.4983 -5.03488
upperback 5.31447 -4.04662 0.675658
thorax -7.47466 -2.21809 4.89972
lowerneck -21.2249 -2.31311 -11.8202
upperneck 21.0055 -1.01919 5.77674
head 10.3264 -0.812908 3.86032
rclavicle 2.14687e-014 3.18055e-015
rhumerus 46.1961 -22.9226 -107.445
rradius 21.0958
rwrist -40.8405
rhand -19.8355 182.159
rfingers 7.12502
rthumb 6.49859 -147.961
lclavicle 2.14687e-014 3.18055e-015
lhumerus 43.3484 -39.1641 81.6261
lradius 38.4637
lwrist -1.06431
lhand -8.25165 45.2598
lfingers 7.12502
lthumb 17.6667 74.4772
rfemur -28.474 1.68841 17.2386
rtibia 33.1928
rfoot 6.82721 -2.59778
rtoes -5.95436
lfemur -36.9808 8.28831 -16.2518
ltibia 62.6129
lfoot -12.5079 1.51132
ltoes 7.6275
240
root 10.9614 16.2027 13.3415 168.659 -21.2024 -167.36
lowerback 25.7453 -1.65109 -5.01954
upperback 4.82989 -4.29687 0.365799
thorax -8.52443 -2.26471 4.71565
lowerneck -21.9287 -1.71014 -11.3698
upperneck 21.7168 -0.137279 5.25978
head 10.6266 -0.462137 3.7482
rclavicle 7.15625e-014 -6.67916e-014
rhumerus 44.6142 -21.4267 -106.742
rradius 21.5731
rwrist -42.5111
rhand -20.8413 183.612
rfingers 7.12502
rthumb 5.52762 -146.48
lclavicle 7.15625e-014 -6.67916e-014
lhumerus 43.2547 -38.788 81.9222
lradius 36.8749
lwrist -1.51599
lhand -6.66482 45.0216
lfingers 7.12502
lthumb 19.1932 74.0945
rfemur -28.9559 1.5031 17.6321
rtibia 35.3422
rfoot 5.80734 -1.4718
rtoes -4.87633
lfemur -36.6365 8.43131 -16.313
ltibia 61.4959
lfoot -11.8542 1.6495
ltoes 7.86477
241
root 10.9645 16.2394 13.4679 168.888 -20.449 -167.516
lowerback 25.7575 -1.69679 -5.07057
upperback 4.83919 -4.4036 0.120634
thorax -8.52682 -2.31978 4.5064
lowerneck -22.2219 -1.19909 -11.041
upperneck 21.5882 0.592024 4.96341
head 10.5657 -0.129567 3.69354
rclavicle 3.73715e-014 9.54166e-015
rhumerus 43.3348 -19.3084 -105.17
rradius 22.3369
rwrist -46.0717
rhand -22.2449 185.397
rfingers 7.12502
rthumb 4.17226 -144.664
lclavicle 3.73715e-014 9.54166e-015
lhumerus 44.2309 -38.795 81.3856
lradius 35.5078
lwrist -1.40313
lhand -5.02081 44.5475
lfingers 7.12502
lthumb 20.7734 73.4555
rfemur -29.5102 1.22805 18.1007
rtibia 37.4714
rfoot 5.0222 -0.532811
rtoes -3.46253
lfemur -36.4501 8.53725 -16.3396
ltibia 60.3573
lfoot -11.3594 1.64726
ltoes 9.54609
